<svg width="15" height="18" viewBox="0 0 15 18" fill="none" xmlns="http://www.w3.org/2000/svg">
<path d="M11.8476 2.97136C11.1966 2.22814 10.8378 1.27368 10.8381 0.285645H7.89524V12.0952C7.87254 12.7342 7.60273 13.3396 7.14263 13.7837C6.68253 14.2278 6.06805 14.476 5.42857 14.4761C4.07619 14.4761 2.95238 13.3714 2.95238 11.9999C2.95238 10.3618 4.53333 9.13326 6.1619 9.63802V6.6285C2.87619 6.19041 0 8.74279 0 11.9999C0 15.1714 2.62857 17.4285 5.41905 17.4285C8.40952 17.4285 10.8381 14.9999 10.8381 11.9999V6.00945C12.0314 6.86645 13.4642 7.32626 14.9333 7.32374V4.38088C14.9333 4.38088 13.1429 4.4666 11.8476 2.97136Z" fill="white"/>
</svg>
