<svg width="18" height="18" viewBox="0 0 18 18" fill="none" xmlns="http://www.w3.org/2000/svg">
<path d="M4.97143 0H12.1714C14.9143 0 17.1429 2.22857 17.1429 4.97143V12.1714C17.1429 13.4899 16.6191 14.7544 15.6868 15.6868C14.7544 16.6191 13.4899 17.1429 12.1714 17.1429H4.97143C2.22857 17.1429 0 14.9143 0 12.1714V4.97143C0 3.65292 0.523774 2.38842 1.4561 1.4561C2.38842 0.523774 3.65292 0 4.97143 0ZM4.8 1.71429C3.98162 1.71429 3.19675 2.03939 2.61807 2.61807C2.03939 3.19675 1.71429 3.98162 1.71429 4.8V12.3429C1.71429 14.0486 3.09429 15.4286 4.8 15.4286H12.3429C13.1612 15.4286 13.9461 15.1035 14.5248 14.5248C15.1035 13.9461 15.4286 13.1612 15.4286 12.3429V4.8C15.4286 3.09429 14.0486 1.71429 12.3429 1.71429H4.8ZM13.0714 3C13.3556 3 13.6281 3.11288 13.829 3.31381C14.03 3.51475 14.1429 3.78727 14.1429 4.07143C14.1429 4.35559 14.03 4.62811 13.829 4.82904C13.6281 5.02997 13.3556 5.14286 13.0714 5.14286C12.7873 5.14286 12.5147 5.02997 12.3138 4.82904C12.1129 4.62811 12 4.35559 12 4.07143C12 3.78727 12.1129 3.51475 12.3138 3.31381C12.5147 3.11288 12.7873 3 13.0714 3ZM8.57143 4.28571C9.70807 4.28571 10.7982 4.73724 11.6019 5.54097C12.4056 6.3447 12.8571 7.43479 12.8571 8.57143C12.8571 9.70807 12.4056 10.7982 11.6019 11.6019C10.7982 12.4056 9.70807 12.8571 8.57143 12.8571C7.43479 12.8571 6.3447 12.4056 5.54097 11.6019C4.73724 10.7982 4.28571 9.70807 4.28571 8.57143C4.28571 7.43479 4.73724 6.3447 5.54097 5.54097C6.3447 4.73724 7.43479 4.28571 8.57143 4.28571ZM8.57143 6C7.88944 6 7.23539 6.27092 6.75315 6.75315C6.27092 7.23539 6 7.88944 6 8.57143C6 9.25341 6.27092 9.90747 6.75315 10.3897C7.23539 10.8719 7.88944 11.1429 8.57143 11.1429C9.25341 11.1429 9.90747 10.8719 10.3897 10.3897C10.8719 9.90747 11.1429 9.25341 11.1429 8.57143C11.1429 7.88944 10.8719 7.23539 10.3897 6.75315C9.90747 6.27092 9.25341 6 8.57143 6Z" fill="white"/>
</svg>
