<svg width="18" height="18" viewBox="0 0 18 18" fill="none" xmlns="http://www.w3.org/2000/svg">
<path d="M6.03429 16.8914C6.85714 17.14 7.68857 17.2857 8.57143 17.2857C10.8447 17.2857 13.0249 16.3826 14.6323 14.7752C16.2398 13.1677 17.1429 10.9875 17.1429 8.71425C17.1429 7.58863 16.9212 6.47404 16.4904 5.43411C16.0596 4.39417 15.4283 3.44927 14.6323 2.65334C13.8364 1.8574 12.8915 1.22604 11.8516 0.795283C10.8116 0.364529 9.69704 0.142822 8.57143 0.142822C7.44581 0.142822 6.33122 0.364529 5.29128 0.795283C4.25135 1.22604 3.30644 1.8574 2.51051 2.65334C0.903059 4.26079 0 6.44097 0 8.71425C0 12.3571 2.28857 15.4857 5.52 16.72C5.44286 16.0514 5.36571 14.9457 5.52 14.1828L6.50571 9.94854C6.50571 9.94854 6.25714 9.45139 6.25714 8.66282C6.25714 7.47996 6.99429 6.59711 7.83429 6.59711C8.57143 6.59711 8.91428 7.13711 8.91428 7.83139C8.91428 8.56854 8.42571 9.62282 8.17714 10.6342C8.03143 11.4742 8.62286 12.2114 9.48 12.2114C11.0057 12.2114 12.1886 10.5828 12.1886 8.28568C12.1886 6.22854 10.7143 4.82282 8.59714 4.82282C6.18 4.82282 4.75714 6.62282 4.75714 8.51711C4.75714 9.25425 4.99714 9.99996 5.39143 10.4885C5.46857 10.54 5.46857 10.6085 5.44286 10.7371L5.19429 11.6714C5.19429 11.8171 5.1 11.8685 4.95429 11.7657C3.85714 11.2857 3.22286 9.72568 3.22286 8.46568C3.22286 5.75711 5.14286 3.29711 8.84571 3.29711C11.7943 3.29711 14.0914 5.41425 14.0914 8.22568C14.0914 11.1743 12.2657 13.54 9.65143 13.54C8.82 13.54 8.00571 13.0942 7.71429 12.5714L7.14 14.6028C6.94286 15.34 6.40286 16.3257 6.03429 16.9171V16.8914Z" fill="white"/>
</svg>
