<svg width="25" height="18" viewBox="0 0 25 18" fill="none" xmlns="http://www.w3.org/2000/svg">
<path d="M9.79592 12.8164L16.151 9.14296L9.79592 5.46949V12.8164ZM23.951 3.22868C24.1102 3.80419 24.2204 4.57561 24.2939 5.55521C24.3796 6.5348 24.4163 7.3797 24.4163 8.11439L24.4898 9.14296C24.4898 11.8246 24.2939 13.796 23.951 15.0572C23.6449 16.1593 22.9347 16.8695 21.8327 17.1756C21.2571 17.3348 20.2041 17.445 18.5878 17.5185C16.9959 17.6042 15.5388 17.6409 14.1918 17.6409L12.2449 17.7144C7.11429 17.7144 3.91837 17.5185 2.65714 17.1756C1.5551 16.8695 0.844898 16.1593 0.538776 15.0572C0.379592 14.4817 0.269388 13.7103 0.195918 12.7307C0.110204 11.7511 0.0734693 10.9062 0.0734693 10.1715L0 9.14296C0 6.46133 0.195918 4.4899 0.538776 3.22868C0.844898 2.12664 1.5551 1.41643 2.65714 1.11031C3.23265 0.951125 4.28571 0.840921 5.90204 0.767451C7.49388 0.681737 8.95102 0.645003 10.298 0.645003L12.2449 0.571533C17.3755 0.571533 20.5714 0.767452 21.8327 1.11031C22.9347 1.41643 23.6449 2.12664 23.951 3.22868Z" fill="white"/>
</svg>
